<svg width="736" height="640" viewBox="0 0 736 640" fill="none" xmlns="http://www.w3.org/2000/svg">
<circle cx="375.997" cy="320" r="159" stroke="#66E480" stroke-opacity="0.65" stroke-width="2" stroke-linejoin="round" stroke-dasharray="5 16"/>
<path d="M615.298 301.549C615.699 306.819 615.929 312.136 615.984 317.495L614.984 317.505C614.992 318.336 614.997 319.167 614.997 320C614.997 320.833 614.992 321.664 614.984 322.495L615.984 322.505C615.929 327.864 615.699 333.182 615.298 338.451L614.301 338.375C614.175 340.026 614.033 341.672 613.874 343.313L614.869 343.41C614.354 348.738 613.664 354.015 612.805 359.236L611.818 359.073C611.549 360.711 611.263 362.342 610.961 363.968L611.944 364.151C610.968 369.403 609.82 374.596 608.507 379.722L607.538 379.474C607.126 381.083 606.698 382.684 606.254 384.28L607.217 384.548C605.784 389.692 604.184 394.766 602.423 399.764L601.48 399.432C600.93 400.995 600.363 402.55 599.782 404.097L600.718 404.449C598.84 409.444 596.8 414.36 594.605 419.19L593.694 418.776C593.01 420.283 592.31 421.781 591.595 423.271L592.496 423.704C590.189 428.512 587.727 433.23 585.115 437.854L584.245 437.362C583.43 438.804 582.601 440.237 581.758 441.66L582.618 442.17C579.902 446.753 577.039 451.238 574.033 455.619L573.209 455.053C572.271 456.419 571.32 457.774 570.356 459.12L571.168 459.702C568.066 464.029 564.823 468.248 561.447 472.353L560.675 471.718C559.623 472.997 558.558 474.265 557.48 475.521L558.239 476.172C554.774 480.211 551.178 484.134 547.456 487.933L546.742 487.234C545.583 488.416 544.413 489.587 543.23 490.745L543.93 491.46C540.131 495.181 536.208 498.778 532.169 502.242L531.518 501.483C530.261 502.561 528.993 503.626 527.714 504.678L528.35 505.45C524.245 508.827 520.025 512.07 515.699 515.172L515.116 514.359C513.771 515.324 512.415 516.275 511.049 517.212L511.615 518.037C507.235 521.042 502.75 523.906 498.167 526.622L497.657 525.761C496.234 526.605 494.801 527.434 493.359 528.248L493.851 529.119C489.227 531.73 484.508 534.193 479.701 536.5L479.268 535.598C477.778 536.313 476.28 537.013 474.773 537.698L475.186 538.608C470.356 540.803 465.44 542.843 460.445 544.721L460.094 543.785C458.546 544.367 456.991 544.933 455.429 545.484L455.761 546.427C450.762 548.188 445.688 549.787 440.544 551.22L440.276 550.257C438.681 550.701 437.079 551.13 435.471 551.542L435.719 552.51C430.592 553.823 425.4 554.971 420.147 555.948L419.964 554.965C418.339 555.267 416.707 555.553 415.07 555.822L415.232 556.809C410.012 557.667 404.734 558.357 399.406 558.873L399.31 557.878C397.669 558.036 396.023 558.179 394.372 558.304L394.448 559.301C389.178 559.702 383.861 559.932 378.502 559.987L378.491 558.987C377.661 558.996 376.829 559 375.997 559C375.164 559 374.332 558.996 373.502 558.987L373.491 559.987C368.132 559.932 362.815 559.702 357.545 559.301L357.621 558.304C355.97 558.179 354.324 558.036 352.683 557.878L352.587 558.873C347.259 558.357 341.981 557.667 336.761 556.809L336.923 555.822C335.286 555.553 333.655 555.267 332.029 554.965L331.846 555.948C326.593 554.971 321.401 553.823 316.274 552.51L316.522 551.542C314.914 551.13 313.312 550.701 311.717 550.257L311.449 551.22C306.305 549.787 301.231 548.188 296.232 546.427L296.565 545.484C295.002 544.933 293.447 544.367 291.9 543.785L291.548 544.721C286.553 542.843 281.637 540.803 276.807 538.608L277.22 537.698C275.714 537.013 274.215 536.313 272.725 535.598L272.292 536.5C267.485 534.193 262.766 531.73 258.143 529.119L258.634 528.248C257.192 527.434 255.759 526.605 254.336 525.761L253.826 526.622C249.243 523.906 244.758 521.042 240.378 518.037L240.944 517.212C239.578 516.275 238.222 515.324 236.877 514.359L236.294 515.172C231.968 512.07 227.749 508.827 223.644 505.45L224.279 504.678C223 503.626 221.732 502.561 220.475 501.483L219.824 502.242C215.785 498.778 211.863 495.181 208.063 491.46L208.763 490.745C207.58 489.587 206.41 488.416 205.251 487.234L204.537 487.933C200.815 484.134 197.219 480.211 193.754 476.172L194.513 475.521C193.435 474.265 192.37 472.997 191.318 471.718L190.546 472.353C187.17 468.248 183.927 464.029 180.825 459.702L181.637 459.12C180.673 457.774 179.722 456.419 178.785 455.053L177.96 455.619C174.955 451.238 172.091 446.753 169.375 442.17L170.235 441.66C169.392 440.237 168.563 438.804 167.748 437.362L166.878 437.854C164.266 433.23 161.804 428.512 159.497 423.704L160.398 423.271C159.683 421.781 158.983 420.283 158.299 418.776L157.388 419.19C155.193 414.36 153.153 409.444 151.275 404.449L152.211 404.097C151.63 402.549 151.063 400.994 150.513 399.432L149.57 399.764C147.809 394.766 146.209 389.692 144.776 384.548L145.74 384.279C145.295 382.684 144.867 381.082 144.455 379.474L143.486 379.722C142.173 374.596 141.026 369.403 140.049 364.15L141.032 363.968C140.73 362.342 140.444 360.71 140.175 359.073L139.188 359.236C138.329 354.015 137.639 348.738 137.124 343.41L138.119 343.313C137.96 341.672 137.818 340.026 137.692 338.375L136.695 338.451C136.295 333.181 136.064 327.864 136.009 322.505L137.009 322.495C137.001 321.664 136.997 320.833 136.997 320C136.997 319.167 137.001 318.336 137.009 317.505L136.009 317.495C136.064 312.136 136.295 306.818 136.695 301.549L137.692 301.625C137.818 299.974 137.96 298.328 138.119 296.687L137.124 296.59C137.639 291.262 138.329 285.985 139.188 280.764L140.175 280.927C140.444 279.289 140.73 277.658 141.032 276.032L140.049 275.849C141.026 270.597 142.173 265.404 143.486 260.278L144.455 260.526C144.867 258.917 145.295 257.316 145.74 255.72L144.776 255.452C146.209 250.308 147.809 245.234 149.57 240.236L150.513 240.568C151.063 239.005 151.63 237.45 152.211 235.903L151.275 235.551C153.153 230.556 155.193 225.64 157.388 220.81L158.299 221.224C158.983 219.717 159.683 218.218 160.398 216.729L159.497 216.296C161.804 211.488 164.266 206.77 166.878 202.146L167.748 202.638C168.563 201.196 169.392 199.763 170.235 198.34L169.375 197.83C172.091 193.247 174.955 188.762 177.96 184.381L178.785 184.947C179.722 183.581 180.673 182.226 181.637 180.88L180.825 180.298C183.927 175.971 187.17 171.752 190.546 167.647L191.318 168.282C192.37 167.003 193.435 165.735 194.513 164.479L193.754 163.828C197.219 159.789 200.815 155.866 204.537 152.067L205.251 152.766C206.41 151.584 207.58 150.413 208.763 149.255L208.063 148.54C211.863 144.819 215.785 141.222 219.824 137.758L220.475 138.517C221.732 137.439 223 136.374 224.279 135.322L223.644 134.55C227.749 131.173 231.968 127.93 236.294 124.828L236.877 125.641C238.222 124.676 239.578 123.725 240.944 122.788L240.378 121.963C244.758 118.958 249.243 116.094 253.826 113.378L254.336 114.239C255.759 113.395 257.192 112.566 258.634 111.752L258.143 110.881C262.766 108.27 267.485 105.807 272.292 103.5L272.725 104.402C274.215 103.687 275.714 102.987 277.221 102.302L276.807 101.392C281.637 99.1965 286.553 97.1568 291.548 95.2788L291.9 96.2149C293.447 95.6331 295.002 95.0669 296.565 94.5165L296.232 93.5733C301.231 91.8125 306.305 90.2125 311.449 88.7796L311.717 89.7429C313.312 89.2986 314.914 88.8704 316.522 88.4585L316.274 87.4897C321.401 86.1768 326.593 85.029 331.846 84.0523L332.029 85.0355C333.655 84.7332 335.286 84.4473 336.923 84.1781L336.761 83.1914C341.982 82.3329 347.259 81.6429 352.587 81.1271L352.683 82.1225C354.325 81.9636 355.971 81.8213 357.621 81.6958L357.546 80.6987C362.815 80.2981 368.132 80.0676 373.492 80.0128L373.502 81.0128C374.332 81.0043 375.164 81 375.997 81C376.829 81 377.661 81.0043 378.491 81.0128L378.502 80.0128C383.861 80.0676 389.178 80.2981 394.448 80.6987L394.372 81.6958C396.023 81.8213 397.669 81.9636 399.31 82.1225L399.406 81.1271C404.735 81.6429 410.012 82.3329 415.232 83.1914L415.07 84.1781C416.707 84.4473 418.339 84.7332 419.964 85.0355L420.147 84.0523C425.4 85.0291 430.592 86.1769 435.719 87.4897L435.471 88.4585C437.079 88.8704 438.681 89.2986 440.276 89.743L440.544 88.7796C445.688 90.2126 450.762 91.8125 455.761 93.5733L455.429 94.5165C456.991 95.0669 458.546 95.6331 460.094 96.2149L460.445 95.2788C465.44 97.1568 470.356 99.1966 475.186 101.392L474.773 102.302C476.28 102.987 477.778 103.687 479.268 104.402L479.701 103.5C484.508 105.807 489.227 108.27 493.851 110.881L493.359 111.752C494.801 112.566 496.234 113.395 497.657 114.239L498.167 113.378C502.75 116.094 507.235 118.958 511.615 121.963L511.049 122.788C512.415 123.725 513.771 124.676 515.116 125.641L515.699 124.828C520.025 127.93 524.245 131.173 528.35 134.55L527.714 135.322C528.993 136.374 530.261 137.439 531.518 138.517L532.169 137.758C536.208 141.222 540.131 144.819 543.93 148.54L543.23 149.255C544.413 150.413 545.583 151.584 546.742 152.766L547.456 152.067C551.178 155.866 554.774 159.789 558.239 163.828L557.48 164.479C558.558 165.735 559.623 167.003 560.675 168.282L561.447 167.647C564.823 171.752 568.066 175.971 571.169 180.298L570.356 180.88C571.32 182.226 572.271 183.581 573.209 184.947L574.033 184.381C577.039 188.762 579.903 193.247 582.618 197.83L581.758 198.34C582.601 199.763 583.43 201.196 584.245 202.638L585.116 202.146C587.727 206.77 590.189 211.488 592.496 216.296L591.595 216.729C592.31 218.219 593.01 219.717 593.695 221.224L594.605 220.81C596.8 225.64 598.84 230.556 600.718 235.551L599.782 235.903C600.364 237.45 600.93 239.006 601.48 240.568L602.423 240.236C604.184 245.234 605.784 250.308 607.217 255.452L606.254 255.721C606.698 257.316 607.126 258.918 607.538 260.526L608.507 260.278C609.82 265.404 610.968 270.597 611.944 275.85L610.961 276.032C611.263 277.658 611.549 279.29 611.818 280.927L612.805 280.764C613.664 285.985 614.354 291.262 614.869 296.59L613.874 296.687C614.033 298.328 614.175 299.974 614.301 301.625L615.298 301.549Z" stroke="#C6C2FF" stroke-opacity="0.65" stroke-width="2" stroke-linejoin="round" stroke-dasharray="5 16"/>
<path d="M695.473 301.548C695.774 306.83 695.946 312.146 695.987 317.494L694.987 317.502C694.993 318.334 694.997 319.167 694.997 320C694.997 320.834 694.993 321.666 694.987 322.498L695.987 322.506C695.946 327.854 695.774 333.17 695.473 338.453L694.475 338.396C694.381 340.057 694.273 341.714 694.154 343.369L695.151 343.441C694.765 348.771 694.249 354.066 693.605 359.321L692.612 359.199C692.41 360.846 692.196 362.488 691.97 364.126L692.96 364.263C692.228 369.555 691.367 374.804 690.379 380.01L689.396 379.823C689.088 381.45 688.767 383.072 688.434 384.689L689.413 384.891C688.336 390.12 687.132 395.302 685.803 400.435L684.835 400.184C684.418 401.793 683.989 403.397 683.549 404.996L684.513 405.262C683.094 410.406 681.551 415.497 679.886 420.533L678.936 420.219C678.416 421.794 677.883 423.363 677.339 424.927L678.283 425.255C676.53 430.291 674.654 435.27 672.66 440.188L671.733 439.812C671.111 441.347 670.477 442.875 669.831 444.398L670.752 444.788C668.672 449.696 666.472 454.542 664.157 459.321L663.257 458.885C662.534 460.378 661.799 461.865 661.053 463.346L661.946 463.796C659.549 468.554 657.036 473.244 654.412 477.862L653.542 477.368C652.724 478.809 651.894 480.244 651.053 481.671L651.915 482.178C649.212 486.767 646.397 491.283 643.476 495.721L642.641 495.171C641.729 496.555 640.808 497.932 639.876 499.301L640.702 499.863C637.706 504.265 634.603 508.587 631.397 512.827L630.599 512.224C629.599 513.546 628.589 514.861 627.569 516.167L628.357 516.783C625.081 520.977 621.704 525.088 618.227 529.112L617.47 528.458C616.387 529.712 615.294 530.957 614.191 532.194L614.938 532.86C611.397 536.831 607.759 540.714 604.027 544.504L603.315 543.803C602.152 544.983 600.98 546.155 599.799 547.318L600.501 548.031C596.711 551.762 592.828 555.4 588.856 558.941L588.191 558.195C586.954 559.297 585.709 560.39 584.455 561.474L585.108 562.231C581.085 565.707 576.974 569.085 572.779 572.36L572.164 571.572C570.857 572.592 569.543 573.602 568.221 574.602L568.824 575.4C564.584 578.606 560.261 581.71 555.86 584.706L555.297 583.879C553.928 584.811 552.552 585.733 551.168 586.644L551.717 587.479C547.279 590.401 542.764 593.215 538.175 595.918L537.667 595.057C536.24 595.897 534.806 596.727 533.365 597.546L533.859 598.415C529.24 601.04 524.551 603.552 519.793 605.95L519.343 605.057C517.862 605.803 516.375 606.537 514.881 607.261L515.317 608.161C510.538 610.476 505.693 612.675 500.785 614.755L500.395 613.835C498.872 614.48 497.343 615.114 495.809 615.737L496.184 616.663C491.267 618.658 486.288 620.533 481.252 622.286L480.923 621.342C479.359 621.886 477.79 622.419 476.216 622.94L476.53 623.889C471.494 625.554 466.402 627.098 461.259 628.516L460.993 627.552C459.394 627.993 457.79 628.422 456.181 628.838L456.431 629.806C451.299 631.135 446.116 632.34 440.887 633.417L440.685 632.437C439.068 632.77 437.446 633.091 435.82 633.4L436.006 634.382C430.801 635.37 425.551 636.231 420.26 636.964L420.123 635.973C418.484 636.2 416.842 636.414 415.196 636.616L415.317 637.608C410.062 638.252 404.768 638.769 399.437 639.155L399.365 638.157C397.711 638.277 396.053 638.384 394.392 638.479L394.449 639.477C389.167 639.777 383.85 639.949 378.502 639.99L378.495 638.99C377.663 638.997 376.83 639 375.997 639C375.163 639 374.33 638.997 373.498 638.99L373.491 639.99C368.143 639.949 362.826 639.777 357.544 639.477L357.601 638.478C355.94 638.384 354.282 638.277 352.628 638.157L352.556 639.155C347.225 638.769 341.931 638.252 336.676 637.608L336.797 636.616C335.151 636.414 333.509 636.2 331.87 635.973L331.733 636.964C326.442 636.231 321.192 635.37 315.987 634.382L316.173 633.4C314.547 633.091 312.925 632.77 311.308 632.437L311.106 633.417C305.877 632.34 300.694 631.135 295.562 629.806L295.812 628.838C294.203 628.422 292.599 627.993 291 627.552L290.734 628.516C285.591 627.098 280.499 625.554 275.463 623.889L275.777 622.94C274.203 622.419 272.634 621.886 271.07 621.342L270.741 622.286C265.705 620.533 260.727 618.658 255.809 616.663L256.185 615.737C254.65 615.114 253.121 614.48 251.598 613.835L251.208 614.755C246.3 612.675 241.455 610.476 236.676 608.161L237.112 607.261C235.618 606.537 234.131 605.802 232.651 605.056L232.201 605.95C227.443 603.552 222.753 601.04 218.134 598.415L218.628 597.546C217.187 596.727 215.753 595.897 214.326 595.056L213.818 595.918C209.229 593.215 204.714 590.401 200.276 587.479L200.826 586.644C199.441 585.733 198.065 584.811 196.696 583.879L196.133 584.706C191.732 581.71 187.41 578.606 183.169 575.4L183.773 574.602C182.45 573.602 181.136 572.592 179.829 571.572L179.214 572.36C175.019 569.085 170.908 565.707 166.885 562.231L167.539 561.474C166.285 560.39 165.039 559.297 163.802 558.195L163.137 558.941C159.165 555.4 155.283 551.762 151.492 548.03L152.194 547.318C151.013 546.155 149.841 544.983 148.679 543.803L147.966 544.504C144.234 540.714 140.596 536.831 137.056 532.86L137.802 532.194C136.699 530.957 135.606 529.712 134.523 528.458L133.766 529.112C130.29 525.088 126.912 520.977 123.636 516.783L124.424 516.167C123.404 514.861 122.394 513.546 121.394 512.224L120.596 512.827C117.39 508.587 114.287 504.265 111.291 499.863L112.117 499.301C111.185 497.932 110.264 496.555 109.353 495.171L108.517 495.721C105.596 491.283 102.781 486.767 100.078 482.178L100.94 481.671C100.099 480.244 99.2696 478.809 98.4507 477.368L97.5812 477.862C94.957 473.244 92.4444 468.554 90.047 463.796L90.9401 463.346C90.194 461.865 89.4592 460.378 88.7357 458.885L87.8358 459.32C85.521 454.542 83.3215 449.696 81.2411 444.788L82.1618 444.398C81.5164 442.875 80.8824 441.347 80.2601 439.812L79.3334 440.188C77.339 435.27 75.4634 430.291 73.7101 425.255L74.6545 424.926C74.1101 423.363 73.5775 421.794 73.0569 420.219L72.1075 420.533C70.4423 415.497 68.8989 410.406 67.4806 405.262L68.4446 404.996C68.0037 403.397 67.5749 401.793 67.1583 400.184L66.1902 400.435C64.8615 395.302 63.6569 390.12 62.5799 384.891L63.5593 384.689C63.2261 383.071 62.9052 381.449 62.5967 379.823L61.6142 380.009C60.6266 374.804 59.7652 369.554 59.033 364.263L60.0236 364.126C59.7969 362.488 59.5827 360.845 59.381 359.199L58.3884 359.321C57.7445 354.066 57.228 348.771 56.842 343.441L57.8394 343.368C57.7197 341.714 57.6125 340.057 57.5181 338.396L56.5197 338.452C56.2194 333.17 56.0472 327.853 56.0062 322.506L57.0062 322.498C56.9998 321.666 56.9966 320.833 56.9966 320C56.9966 319.166 56.9998 318.334 57.0062 317.502L56.0062 317.494C56.0472 312.146 56.2194 306.83 56.5197 301.547L57.5181 301.604C57.6125 299.943 57.7197 298.286 57.8394 296.631L56.8421 296.559C57.228 291.229 57.7445 285.934 58.3884 280.679L59.381 280.801C59.5827 279.154 59.7969 277.512 60.0236 275.874L59.0331 275.737C59.7652 270.445 60.6267 265.196 61.6142 259.99L62.5967 260.177C62.9053 258.55 63.2262 256.928 63.5593 255.311L62.5799 255.109C63.6569 249.88 64.8615 244.698 66.1903 239.565L67.1583 239.816C67.5749 238.207 68.0037 236.603 68.4446 235.004L67.4806 234.738C68.8989 229.594 70.4424 224.503 72.1075 219.467L73.0569 219.781C73.5776 218.206 74.1101 216.637 74.6545 215.073L73.7101 214.745C75.4634 209.709 77.339 204.73 79.3334 199.812L80.2601 200.188C80.8825 198.653 81.5164 197.124 82.1619 195.602L81.2412 195.212C83.3216 190.304 85.521 185.458 87.8358 180.679L88.7358 181.115C89.4593 179.622 90.1941 178.135 90.9401 176.654L90.0471 176.204C92.4444 171.446 94.957 166.756 97.5812 162.138L98.4507 162.632C99.2696 161.191 100.099 159.756 100.94 158.329L100.078 157.822C102.781 153.233 105.596 148.717 108.517 144.279L109.353 144.829C110.264 143.445 111.185 142.068 112.117 140.699L111.291 140.136C114.287 135.735 117.39 131.413 120.597 127.173L121.394 127.776C122.394 126.454 123.404 125.139 124.424 123.833L123.636 123.217C126.912 119.023 130.29 114.912 133.766 110.888L134.523 111.542C135.606 110.288 136.699 109.043 137.802 107.806L137.056 107.14C140.596 103.169 144.234 99.2859 147.966 95.4958L148.679 96.1974C149.841 95.0166 151.013 93.8448 152.194 92.6821L151.492 91.9695C155.283 88.2376 159.165 84.5995 163.137 81.0589L163.802 81.8054C165.039 80.7028 166.285 79.6097 167.539 78.5261L166.885 77.7695C170.908 74.293 175.019 70.9151 179.214 67.6395L179.829 68.4277C181.136 67.4077 182.45 66.3976 183.773 65.3975L183.169 64.5999C187.41 61.3936 191.732 58.2905 196.133 55.2942L196.696 56.1208C198.065 55.1888 199.441 54.2672 200.826 53.3561L200.276 52.5208C204.714 49.5991 209.23 46.7849 213.818 44.0819L214.326 44.9435C215.753 44.1029 217.187 43.273 218.628 42.4541L218.134 41.5846C222.753 38.9604 227.443 36.4478 232.201 34.0504L232.651 34.9435C234.131 34.1975 235.618 33.4627 237.112 32.7391L236.676 31.8392C241.455 29.5244 246.3 27.325 251.208 25.2446L251.598 26.1653C253.121 25.5198 254.65 24.8858 256.185 24.2635L255.809 23.3368C260.727 21.3424 265.705 19.4668 270.741 17.7135L271.07 18.6579C272.634 18.1135 274.203 17.5809 275.777 17.0603L275.463 16.1109C280.5 14.4457 285.591 12.9023 290.734 11.484L291 12.448C292.599 12.0071 294.203 11.5783 295.812 11.1617L295.562 10.1936C300.694 8.86488 305.877 7.66029 311.106 6.58328L311.308 7.56272C312.925 7.22956 314.547 6.90865 316.174 6.60008L315.987 5.61761C321.192 4.63006 326.442 3.76858 331.733 3.03646L331.87 4.02703C333.509 3.80033 335.151 3.58608 336.797 3.38437L336.676 2.3918C341.931 1.74789 347.225 1.23138 352.556 0.845453L352.628 1.84284C354.282 1.72309 355.94 1.61595 357.601 1.52151L357.544 0.523126C362.827 0.222812 368.143 0.0506194 373.491 0.00960567L373.499 1.00958C374.33 1.0032 375.163 1 375.997 1C376.83 1 377.663 1.0032 378.495 1.00958L378.503 0.00960778C383.85 0.050626 389.167 0.222824 394.449 0.523142L394.392 1.52153C396.053 1.61596 397.711 1.72311 399.365 1.84286L399.437 0.845471C404.768 1.2314 410.063 1.74791 415.318 2.39182L415.196 3.3844C416.842 3.58611 418.485 3.80036 420.123 4.02706L420.26 3.03649C425.551 3.76861 430.801 4.63009 436.006 5.61764L435.82 6.60012C437.446 6.90868 439.068 7.22959 440.686 7.56275L440.887 6.58331C446.116 7.66032 451.299 8.86491 456.432 10.1937L456.181 11.1618C457.79 11.5783 459.394 12.0071 460.993 12.448L461.259 11.484C466.402 12.9023 471.494 14.4458 476.53 16.1109L476.216 17.0604C477.79 17.581 479.36 18.1135 480.923 18.6579L481.252 17.7135C486.288 19.4668 491.267 21.3425 496.184 23.3368L495.809 24.2635C497.343 24.8859 498.872 25.5198 500.395 26.1653L500.785 25.2446C505.693 27.325 510.538 29.5244 515.317 31.8392L514.881 32.7392C516.375 33.4627 517.862 34.1975 519.343 34.9435L519.793 34.0505C524.551 36.4478 529.241 38.9604 533.859 41.5846L533.365 42.4541C534.806 43.273 536.24 44.1029 537.667 44.9435L538.175 44.0819C542.764 46.7849 547.279 49.5991 551.717 52.5208L551.168 53.3561C552.552 54.2672 553.928 55.1888 555.297 56.1208L555.86 55.2942C560.261 58.2905 564.584 61.3936 568.824 64.6L568.221 65.3976C569.543 66.3976 570.857 67.4077 572.164 68.4277L572.779 67.6395C576.974 70.9151 581.085 74.293 585.108 77.7695L584.455 78.5261C585.709 79.6097 586.954 80.7028 588.191 81.8054L588.856 81.059C592.828 84.5995 596.711 88.2376 600.501 91.9695L599.799 92.6821C600.98 93.8448 602.152 95.0166 603.315 96.1974L604.027 95.4958C607.759 99.2859 611.397 103.169 614.938 107.14L614.191 107.806C615.294 109.043 616.387 110.288 617.47 111.542L618.227 110.888C621.704 114.912 625.081 119.023 628.357 123.217L627.569 123.833C628.589 125.139 629.599 126.454 630.599 127.776L631.397 127.173C634.603 131.413 637.706 135.735 640.702 140.137L639.876 140.699C640.808 142.068 641.729 143.445 642.641 144.829L643.476 144.279C646.397 148.717 649.212 153.233 651.915 157.822L651.053 158.329C651.894 159.756 652.724 161.191 653.543 162.632L654.412 162.138C657.036 166.756 659.549 171.446 661.946 176.204L661.053 176.654C661.799 178.135 662.534 179.622 663.257 181.115L664.157 180.68C666.472 185.458 668.672 190.304 670.752 195.212L669.831 195.602C670.477 197.125 671.111 198.653 671.733 200.188L672.66 199.812C674.654 204.73 676.53 209.709 678.283 214.745L677.339 215.074C677.883 216.637 678.416 218.206 678.936 219.781L679.886 219.467C681.551 224.503 683.094 229.594 684.513 234.738L683.549 235.004C683.99 236.603 684.418 238.207 684.835 239.816L685.803 239.565C687.132 244.698 688.336 249.88 689.413 255.109L688.434 255.311C688.767 256.929 689.088 258.551 689.396 260.177L690.379 259.991C691.367 265.196 692.228 270.446 692.96 275.737L691.97 275.874C692.196 277.512 692.411 279.155 692.612 280.801L693.605 280.679C694.249 285.934 694.765 291.229 695.151 296.559L694.154 296.632C694.273 298.286 694.381 299.943 694.475 301.604L695.473 301.548Z" stroke="#C6C2FF" stroke-opacity="0.65" stroke-width="2" stroke-linejoin="round" stroke-dasharray="5 16"/>
<path d="M280.038 79.7798C280.038 83.553 277.325 86.5108 274.095 86.5108C270.865 86.5108 268.151 83.553 268.151 79.7798C268.151 76.0066 270.865 73.0488 274.095 73.0488C277.325 73.0488 280.038 76.0066 280.038 79.7798Z" stroke="#66E480" stroke-opacity="0.26"/>
<path d="M523.895 104.363L533.041 91.4903L542.186 104.363H523.895Z" stroke="#66E480" stroke-opacity="0.26"/>
<path d="M138.948 23.1915C139.009 22.9079 139.266 22.7226 139.521 22.7777L143.684 23.6764C143.939 23.7315 144.096 24.0062 144.035 24.2899C143.974 24.5736 143.717 24.7588 143.462 24.7037L139.762 23.9049L138.875 28.0142C138.813 28.2979 138.557 28.4831 138.301 28.428C138.046 28.3728 137.889 28.0982 137.95 27.8145L138.948 23.1915ZM158.687 57.9293L139.005 23.584L139.816 22.9988L159.498 57.3441L158.687 57.9293Z" fill="#66E480" fill-opacity="0.26"/>
<path d="M427.932 30.96L429.26 35.5468L429.364 35.9077H429.74H434.187L430.542 38.8802L430.285 39.0891L430.377 39.4067L431.74 44.1132L428.248 41.2658L427.932 41.0082L427.616 41.2658L424.123 44.1132L425.486 39.4067L425.578 39.0891L425.322 38.8802L421.676 35.9077H426.123H426.499L426.604 35.5468L427.932 30.96Z" stroke="#66E480" stroke-opacity="0.26"/>
<path d="M151.169 598.6C151.169 602.373 148.455 605.331 145.226 605.331C141.996 605.331 139.282 602.373 139.282 598.6C139.282 594.827 141.996 591.869 145.226 591.869C148.455 591.869 151.169 594.827 151.169 598.6Z" stroke="#66E480" stroke-opacity="0.26"/>
<path d="M485 612.336L475.855 599.463L466.709 612.336H485Z" stroke="#66E480" stroke-opacity="0.26"/>
<path d="M349.423 612.669C349.164 612.661 348.96 612.418 348.969 612.127L349.113 607.378C349.122 607.087 349.34 606.857 349.599 606.865C349.859 606.873 350.063 607.115 350.054 607.407L349.926 611.628L353.688 611.742C353.947 611.75 354.151 611.992 354.142 612.284C354.133 612.575 353.915 612.805 353.656 612.797L349.423 612.669ZM376.264 584.545L349.76 612.524L349.118 611.758L375.622 583.779L376.264 584.545Z" fill="#66E480" fill-opacity="0.26"/>
<path d="M249.932 545.263L251.26 549.849L251.364 550.21H251.74H256.187L252.542 553.183L252.285 553.392L252.377 553.709L253.74 558.416L250.248 555.569L249.932 555.311L249.616 555.569L246.123 558.416L247.486 553.709L247.578 553.392L247.322 553.183L243.676 550.21H248.123H248.499L248.604 549.849L249.932 545.263Z" stroke="#66E480" stroke-opacity="0.26"/>
<path d="M41.1774 481.096C41.1774 484.869 38.4638 487.827 35.234 487.827C32.0041 487.827 29.2905 484.869 29.2905 481.096C29.2905 477.323 32.0041 474.365 35.234 474.365C38.4638 474.365 41.1774 477.323 41.1774 481.096Z" stroke="#66E480" stroke-opacity="0.26"/>
<path d="M38.3393 223.317L29.1938 236.189L20.0483 223.317H38.3393Z" stroke="#66E480" stroke-opacity="0.26"/>
<path d="M93.6784 353.794C93.7639 353.518 93.6298 353.232 93.3788 353.154L89.2889 351.887C89.0379 351.809 88.7652 351.97 88.6797 352.246C88.5942 352.522 88.7283 352.808 88.9793 352.886L92.6148 354.012L91.3764 358.01C91.2909 358.286 91.425 358.573 91.676 358.651C91.927 358.728 92.1997 358.568 92.2852 358.292L93.6784 353.794ZM61.2187 373.088L93.4359 354.106L93.0121 353.201L60.795 372.182L61.2187 373.088Z" fill="#66E480" fill-opacity="0.26"/>
<path d="M100.474 149.366L101.802 153.953L101.907 154.314H102.283H106.73L103.084 157.286L102.828 157.495L102.92 157.813L104.283 162.519L100.79 159.672L100.474 159.414L100.158 159.672L96.6659 162.519L98.0286 157.813L98.1206 157.495L97.8643 157.286L94.2186 154.314H98.6659H99.0417L99.1462 153.953L100.474 149.366Z" stroke="#66E480" stroke-opacity="0.26"/>
<path d="M714.97 553.409C714.97 557.182 712.257 560.14 709.027 560.14C705.797 560.14 703.083 557.182 703.083 553.409C703.083 549.636 705.797 546.678 709.027 546.678C712.257 546.678 714.97 549.636 714.97 553.409Z" stroke="#66E480" stroke-opacity="0.26"/>
<path d="M708.184 406.655L716.874 393.445L703.463 386.881L708.184 406.655Z" stroke="#66E480" stroke-opacity="0.26"/>
<path d="M685.318 184.769C685.404 184.493 685.269 184.206 685.018 184.128L680.929 182.861C680.678 182.784 680.405 182.944 680.319 183.22C680.234 183.496 680.368 183.783 680.619 183.861L684.254 184.987L683.016 188.985C682.931 189.261 683.065 189.547 683.316 189.625C683.567 189.703 683.839 189.542 683.925 189.266L685.318 184.769ZM652.858 204.062L685.076 185.081L684.652 184.175L652.435 203.156L652.858 204.062Z" fill="#66E480" fill-opacity="0.26"/>
<path d="M726.972 247.89L728.3 252.476L728.405 252.837H728.781H733.228L729.582 255.81L729.326 256.019L729.418 256.336L730.781 261.043L727.288 258.195L726.972 257.938L726.656 258.195L723.164 261.043L724.527 256.336L724.619 256.019L724.362 255.81L720.717 252.837H725.164H725.54L725.644 252.476L726.972 247.89Z" stroke="#66E480" stroke-opacity="0.26"/>
</svg>
